<svg width="213" height="88" fill="none" xmlns="http://www.w3.org/2000/svg"><rect width="213" height="88" rx="8" fill="#fff"/><path d="M51.201 70v-6.752h.81V70h-.81zm4.393.116c-.495 0-.926-.09-1.293-.27a2.02 2.02 0 01-.848-.753 2.08 2.08 0 01-.3-1.119h.85c0 .264.06.508.183.733a1.4 1.4 0 00.53.531c.238.129.53.193.878.193.457 0 .81-.11 1.061-.328.25-.219.376-.492.376-.82 0-.27-.058-.485-.173-.646a1.27 1.27 0 00-.473-.405 3.691 3.691 0 00-.675-.27 24.85 24.85 0 01-.791-.26c-.521-.18-.907-.403-1.158-.666-.25-.27-.376-.62-.376-1.052a1.7 1.7 0 01.251-.955c.174-.283.418-.501.733-.656.322-.16.701-.24 1.138-.24.431 0 .804.08 1.12.24a1.821 1.821 0 011.023 1.63h-.85c0-.186-.048-.37-.145-.55a1.114 1.114 0 00-.444-.453c-.192-.115-.437-.173-.733-.173-.366-.007-.669.087-.906.28-.232.192-.348.46-.348.8 0 .29.08.511.242.666.167.154.398.283.694.386.296.096.637.209 1.022.337.322.116.611.25.868.405.258.155.457.354.599.598.148.245.221.556.221.936 0 .321-.083.627-.25.916a1.88 1.88 0 01-.762.695c-.335.18-.756.27-1.264.27zm6.493 0c-.663 0-1.245-.145-1.746-.434a3.13 3.13 0 01-1.167-1.235c-.277-.527-.415-1.135-.415-1.823s.138-1.292.415-1.813a3.13 3.13 0 011.167-1.235c.502-.296 1.083-.444 1.746-.444.668 0 1.25.148 1.746.444.501.296.89.707 1.167 1.235.276.52.415 1.125.415 1.813s-.139 1.296-.415 1.823a3.044 3.044 0 01-1.167 1.235c-.495.29-1.078.434-1.746.434zm0-.714c.495 0 .929-.11 1.302-.328a2.25 2.25 0 00.878-.955c.212-.418.318-.916.318-1.495 0-.579-.106-1.074-.318-1.485a2.194 2.194 0 00-.878-.946c-.373-.225-.807-.337-1.302-.337s-.933.112-1.312.337a2.273 2.273 0 00-.878.946c-.206.411-.308.906-.308 1.485 0 .579.102 1.077.308 1.495.212.412.505.73.878.955.38.219.817.328 1.312.328zm9.277.714c-.424 0-.788-.084-1.09-.251a2.005 2.005 0 01-.723-.666 2.25 2.25 0 01-.319-.935h.753c.064.366.219.65.463.849.244.199.553.299.926.299.514 0 .942-.238 1.283-.714.34-.482.524-1.232.55-2.248-.155.303-.402.566-.743.791-.335.219-.74.328-1.215.328-.38 0-.74-.09-1.08-.27a2.208 2.208 0 01-.83-.752 2.066 2.066 0 01-.319-1.148 2.272 2.272 0 011.09-1.939c.347-.218.762-.328 1.245-.328.488 0 .9.093 1.234.28.335.18.602.424.8.733.207.309.355.656.445 1.042.096.38.144.768.144 1.167 0 .746-.103 1.402-.308 1.968-.206.56-.505 1-.898 1.321-.385.315-.855.473-1.408.473zm.048-3.25c.303 0 .573-.068.81-.203.239-.142.428-.328.57-.56.141-.231.212-.482.212-.752a1.482 1.482 0 00-.781-1.312 1.677 1.677 0 00-.81-.193c-.303 0-.573.064-.81.193a1.413 1.413 0 00-.56.54 1.489 1.489 0 00-.203.781c0 .457.148.823.444 1.1.302.27.678.405 1.128.405zm6.433 3.25c-.598 0-1.116-.145-1.553-.434a2.85 2.85 0 01-.993-1.225c-.232-.528-.348-1.138-.348-1.833 0-.694.116-1.302.348-1.823.231-.527.562-.936.993-1.225.437-.296.955-.444 1.553-.444s1.112.148 1.543.444c.431.29.762.698.994 1.225.231.52.347 1.129.347 1.823 0 .695-.116 1.305-.347 1.833a2.85 2.85 0 01-.994 1.225c-.43.29-.945.434-1.543.434zm0-.714c.392 0 .743-.11 1.051-.328.315-.225.56-.543.733-.955.18-.418.27-.916.27-1.495 0-.579-.09-1.074-.27-1.485-.173-.412-.418-.727-.733-.946a1.74 1.74 0 00-1.051-.337c-.399 0-.752.112-1.061.337-.309.219-.553.534-.733.946-.18.411-.27.906-.27 1.485 0 .579.09 1.077.27 1.495.18.412.424.73.733.955a1.79 1.79 0 001.061.328zm6.688.714c-.598 0-1.116-.145-1.553-.434a2.85 2.85 0 01-.994-1.225c-.231-.528-.347-1.138-.347-1.833 0-.694.116-1.302.347-1.823.232-.527.563-.936.994-1.225.437-.296.955-.444 1.553-.444s1.112.148 1.543.444c.431.29.762.698.994 1.225.231.52.347 1.129.347 1.823 0 .695-.116 1.305-.347 1.833a2.85 2.85 0 01-.994 1.225c-.43.29-.945.434-1.543.434zm0-.714c.392 0 .743-.11 1.051-.328.315-.225.56-.543.733-.955.18-.418.27-.916.27-1.495 0-.579-.09-1.074-.27-1.485-.173-.412-.418-.727-.733-.946a1.74 1.74 0 00-1.051-.337c-.399 0-.752.112-1.061.337-.309.219-.553.534-.733.946-.18.411-.27.906-.27 1.485 0 .579.09 1.077.27 1.495.18.412.424.73.733.955a1.79 1.79 0 001.06.328zm4.72.598v-5.845l-1.09.24v-.559l1.36-.588h.55V70h-.82zm2.477.048a.569.569 0 01-.406-.154.556.556 0 01-.154-.396c0-.154.052-.282.154-.385a.55.55 0 01.406-.164c.154 0 .283.054.385.164.11.103.164.231.164.385a.539.539 0 01-.163.396.523.523 0 01-.386.154zm0-3.848a.569.569 0 01-.406-.155.556.556 0 01-.154-.395c0-.154.052-.283.154-.386a.55.55 0 01.406-.164c.154 0 .283.055.385.164.11.103.164.232.164.386a.539.539 0 01-.163.395.523.523 0 01-.386.155zm1.584 3.8v-.57c.456-.36.887-.723 1.292-1.09.412-.372.775-.739 1.09-1.099a5.23 5.23 0 00.752-1.06c.187-.348.28-.682.28-1.004 0-.238-.042-.46-.125-.665a1.009 1.009 0 00-.386-.492c-.18-.129-.424-.193-.733-.193-.296 0-.543.067-.743.202-.2.129-.35.303-.453.521a1.726 1.726 0 00-.145.704h-.781c0-.443.093-.823.28-1.138.186-.321.44-.566.762-.733.321-.167.684-.25 1.09-.25.598 0 1.086.17 1.466.51.386.335.578.837.578 1.505 0 .399-.1.794-.299 1.187a6.05 6.05 0 01-.762 1.128c-.308.36-.64.698-.993 1.013-.347.315-.672.598-.974.849h3.26V70h-4.456zm8.165.116c-.598 0-1.116-.145-1.553-.434a2.85 2.85 0 01-.994-1.225c-.231-.528-.347-1.138-.347-1.833 0-.694.116-1.302.347-1.823.232-.527.563-.936.994-1.225.437-.296.955-.444 1.553-.444s1.112.148 1.543.444c.431.29.762.698.993 1.225.232.52.348 1.129.348 1.823 0 .695-.116 1.305-.348 1.833a2.85 2.85 0 01-.993 1.225c-.431.29-.945.434-1.543.434zm0-.714c.392 0 .742-.11 1.051-.328.315-.225.559-.543.733-.955.18-.418.27-.916.27-1.495 0-.579-.09-1.074-.27-1.485-.174-.412-.418-.727-.733-.946a1.74 1.74 0 00-1.051-.337c-.399 0-.753.112-1.061.337-.309.219-.553.534-.733.946-.18.411-.27.906-.27 1.485 0 .579.09 1.077.27 1.495.18.412.424.73.733.955.308.219.662.328 1.061.328zm4.72.598v-5.845l-1.09.24v-.559l1.36-.588h.55V70h-.82zm4.541.116c-.463 0-.865-.084-1.206-.251a2.143 2.143 0 01-.82-.685 2.253 2.253 0 01-.366-1.003h.79c.078.373.258.675.541.907.283.225.639.337 1.07.337.322 0 .598-.074.83-.222a1.5 1.5 0 00.53-.617c.129-.257.193-.543.193-.858 0-.502-.141-.907-.424-1.216-.283-.308-.65-.463-1.1-.463-.373 0-.691.084-.955.251a1.498 1.498 0 00-.578.656h-.772l.579-3.704h3.54v.704h-2.913l-.396 2.055a1.73 1.73 0 01.637-.463 2.3 2.3 0 01.945-.184c.444 0 .83.103 1.157.31.335.205.595.485.782.838.186.354.28.756.28 1.206 0 .43-.094.83-.28 1.196a2.1 2.1 0 01-.801.878c-.347.218-.768.328-1.263.328zm9.124 0c-.662 0-1.235-.145-1.717-.434a3.003 3.003 0 01-1.109-1.225c-.264-.528-.396-1.138-.396-1.833 0-.688.132-1.292.396-1.813a2.99 2.99 0 011.109-1.235c.482-.296 1.055-.444 1.717-.444.772 0 1.399.187 1.881.56.489.366.8.88.935 1.543h-.897a1.764 1.764 0 00-.636-1.003c-.315-.257-.743-.386-1.283-.386-.482 0-.904.113-1.264.338-.36.218-.639.537-.839.955-.193.411-.289.906-.289 1.485 0 .579.096 1.077.289 1.495.2.412.479.73.839.955.36.219.782.328 1.264.328.54 0 .968-.122 1.283-.367.321-.25.534-.581.636-.993h.897c-.135.65-.446 1.157-.935 1.524-.482.367-1.109.55-1.881.55zm6.084 0c-.457 0-.862-.103-1.216-.309a2.302 2.302 0 01-.839-.878c-.199-.373-.299-.813-.299-1.321 0-.502.1-.939.299-1.312.2-.38.476-.672.83-.878.36-.212.775-.318 1.244-.318.463 0 .862.106 1.196.318.341.206.601.48.781.82a2.32 2.32 0 01.261 1.312v.241h-3.81c.019.367.103.672.251.916.154.238.344.419.569.54.231.123.476.184.733.184.334 0 .614-.077.839-.232.225-.154.389-.363.492-.627h.8a2.172 2.172 0 01-.742 1.11c-.36.29-.823.434-1.389.434zm0-4.331c-.386 0-.73.119-1.032.357-.296.231-.467.572-.512 1.022h3.01c-.019-.43-.167-.768-.444-1.013-.276-.244-.617-.366-1.022-.366zm3.34 4.215v-4.784h.733l.068.916c.148-.315.373-.566.675-.752.302-.187.675-.28 1.119-.28v.849h-.222c-.283 0-.543.051-.781.154a1.158 1.158 0 00-.569.502c-.142.238-.212.566-.212.984V70h-.811zm5.395 0c-.437 0-.781-.106-1.032-.318-.251-.213-.376-.595-.376-1.148V65.9h-.83v-.685h.83l.106-1.148h.704v1.148h1.408v.685h-1.408v2.633c0 .302.061.508.183.617.122.103.338.154.646.154h.502V70h-.733zm2.332-5.845a.571.571 0 01-.406-.155.572.572 0 01-.154-.405c0-.154.052-.283.154-.386a.571.571 0 01.406-.154c.154 0 .286.052.395.154a.509.509 0 01.164.386.55.55 0 01-.164.405.555.555 0 01-.395.155zM136.609 70v-4.784h.811V70h-.811zm2.482 0v-4.1h-.724v-.684h.724v-.83c0-.463.116-.8.347-1.013.232-.212.569-.318 1.013-.318h.482v.695h-.357c-.244 0-.418.051-.521.154-.103.096-.154.264-.154.502v.81h2.971V70h-.81v-4.1h-2.161V70h-.81zm3.385-5.7a.555.555 0 01-.395-.155.552.552 0 01-.164-.405.51.51 0 01.164-.386.555.555 0 01.395-.154c.161 0 .293.051.396.154a.509.509 0 01.164.386c0 .16-.055.296-.164.405a.536.536 0 01-.396.154zm4.026 5.816c-.456 0-.868-.103-1.234-.309a2.345 2.345 0 01-.859-.878c-.206-.38-.308-.82-.308-1.321 0-.502.102-.939.308-1.312.212-.38.499-.672.859-.878a2.417 2.417 0 011.234-.318c.566 0 1.042.148 1.428.444.392.296.64.691.743 1.186h-.83a1.044 1.044 0 00-.473-.685 1.542 1.542 0 00-.877-.25c-.27 0-.524.067-.762.202a1.512 1.512 0 00-.579.608c-.148.27-.222.604-.222 1.003 0 .399.074.733.222 1.003.148.27.341.476.579.617.238.135.492.203.762.203.334 0 .627-.08.877-.241.251-.167.409-.402.473-.704h.83a1.919 1.919 0 01-.733 1.176c-.393.303-.872.454-1.438.454zm4.894 0c-.399 0-.73-.068-.994-.203a1.376 1.376 0 01-.781-1.273c0-.489.186-.865.559-1.129.373-.263.881-.395 1.524-.395h1.293v-.058c0-.418-.109-.733-.328-.945-.219-.219-.511-.328-.878-.328-.315 0-.588.08-.82.241-.225.154-.366.383-.424.685h-.83c.033-.347.148-.64.348-.878a1.95 1.95 0 01.762-.54c.302-.129.623-.193.964-.193.669 0 1.171.18 1.505.54.341.354.511.826.511 1.418V70h-.723l-.049-.859a1.92 1.92 0 01-.598.695c-.257.186-.604.28-1.041.28zm.125-.685c.309 0 .572-.08.791-.241.225-.161.396-.37.511-.627a1.95 1.95 0 00.174-.81v-.01h-1.225c-.476 0-.814.084-1.013.25a.757.757 0 00-.289.608c0 .251.09.454.27.608.186.148.447.222.781.222zm5.26.569c-.437 0-.781-.106-1.032-.318-.251-.213-.376-.595-.376-1.148V65.9h-.829v-.685h.829l.106-1.148h.704v1.148h1.409v.685h-1.409v2.633c0 .302.061.508.184.617.122.103.337.154.646.154h.501V70h-.733zm2.332-5.845a.567.567 0 01-.405-.155.568.568 0 01-.155-.405c0-.154.052-.283.155-.386a.567.567 0 01.405-.154c.154 0 .286.052.395.154.11.103.164.232.164.386a.547.547 0 01-.164.405.555.555 0 01-.395.155zM158.708 70v-4.784h.81V70h-.81zm4.401.116c-.451 0-.856-.103-1.216-.309a2.271 2.271 0 01-.858-.868c-.206-.38-.309-.823-.309-1.331s.106-.949.318-1.322c.213-.379.499-.672.859-.877a2.458 2.458 0 011.225-.309c.45 0 .855.103 1.215.309.36.205.643.498.849.877.212.373.318.814.318 1.322 0 .508-.106.952-.318 1.331a2.248 2.248 0 01-.868.868c-.36.206-.765.309-1.215.309zm0-.695c.276 0 .533-.067.771-.202s.431-.338.579-.608c.148-.27.222-.604.222-1.003 0-.399-.074-.733-.222-1.003a1.446 1.446 0 00-.569-.608 1.52 1.52 0 00-.762-.203 1.503 1.503 0 00-1.35.81c-.148.27-.222.605-.222 1.004s.074.733.222 1.003c.147.27.337.473.569.608.238.135.492.202.762.202zm3.528.579v-4.784h.733l.048.858a1.74 1.74 0 01.666-.714c.289-.173.617-.26.984-.26.566 0 1.016.174 1.35.52.341.342.511.869.511 1.583V70h-.81v-2.71c0-.997-.411-1.496-1.235-1.496-.411 0-.755.152-1.032.454-.27.296-.405.72-.405 1.273V70h-.81z" fill="#707070"/><path d="M60.253 42.804c-7.422.514-14.13-.856-18.469-3.368.2.542.4 1.056.628 1.599 3.568 2.083 8.45 3.197 13.759 2.826 2.455-.172 4.738-.628 6.85-1.342-.913.114-1.826.228-2.768.285z" fill="#12A44A"/><path d="M44.096 33.698c0-1.855.314-3.654.885-5.338a22.007 22.007 0 01-2.912-1.113 17.574 17.574 0 00-1.199 5.909 33.44 33.44 0 003.255 1.17c-.03-.228-.03-.428-.03-.628zm16.699-16.727c2.198 0 4.31.428 6.251 1.198A17.958 17.958 0 0058.511 16c-6.908 0-12.874 3.968-15.785 9.734a26.25 26.25 0 002.883.999c2.626-5.766 8.45-9.762 15.186-9.762zm0 33.426c-5.424 0-10.22-2.57-13.274-6.566a22.63 22.63 0 01-4.339-1.341c3.055 5.31 8.764 8.877 15.33 8.877a17.46 17.46 0 008.506-2.198 16.129 16.129 0 01-6.223 1.228zM44.21 35.61c-1.199-.429-2.34-.914-3.368-1.485.057 2.37.57 4.624 1.484 6.651a25.67 25.67 0 004.11 1.399c-1.198-1.941-1.969-4.196-2.226-6.566z" fill="#12A44A"/><path d="M48.378 33.298c0 3.482.999 6.737 2.74 9.448a23.509 23.509 0 01-1.341-8.135c.085-7.222 3.31-13.53 8.106-17.013-5.652 2.969-9.505 8.878-9.505 15.7z" fill="#12A44A"/><path d="M42.412 26.362c2.14 1.113 4.681 1.941 7.45 2.37.171-.543.343-1.085.57-1.6-2.71-.513-5.166-1.255-7.278-2.226-.257.486-.514.97-.742 1.456zm20.552 1.228a41.858 41.858 0 01-4.71.256 45.67 45.67 0 01-6.365-.456 31.472 31.472 0 00-.486 1.541c.885.086 1.77.143 2.655.143 3.254-.029 6.28-.543 8.906-1.485zm-6.194 7.85c-2.14 0-4.225-.143-6.194-.429 0 .485 0 .942.028 1.399a35.1 35.1 0 003.083.314c4.881.228 9.363-.685 12.874-2.398-2.969.714-6.28 1.113-9.791 1.113zm-15.871-3.283c-.029.257-.029.542-.057.799 2.34 1.484 5.252 2.626 8.506 3.254a21.985 21.985 0 01-.142-1.427c-3.14-.571-5.966-1.485-8.307-2.626z" fill="#12A44A"/><path d="M70.014 33.526v-9.59h1.74v9.59h-1.74zm6.879.171c-.714 0-1.313-.114-1.856-.37a3.09 3.09 0 01-1.284-1.028c-.314-.428-.457-1-.485-1.656h1.855c.029.457.171.828.485 1.142.314.314.742.457 1.256.457.457 0 .828-.115 1.114-.343.285-.228.4-.514.4-.885 0-.4-.115-.685-.372-.913-.257-.229-.57-.4-.97-.543-.4-.142-.828-.285-1.285-.428-.742-.257-1.313-.57-1.684-.999-.4-.4-.571-.942-.571-1.599 0-.57.114-1.056.4-1.455.285-.4.656-.714 1.141-.942.514-.257 1.056-.371 1.713-.371.628 0 1.199.114 1.684.342.486.229.885.543 1.142.97.286.4.428.914.457 1.456h-1.884c0-.342-.143-.627-.4-.884s-.6-.4-1.056-.4c-.371 0-.714.086-.97.285-.257.2-.4.486-.4.857 0 .314.114.57.314.77.2.2.485.343.828.486.342.114.742.257 1.198.4.486.17.914.342 1.314.57.4.229.713.514.942.857.228.37.342.828.342 1.398 0 .514-.114.97-.371 1.4-.257.427-.628.77-1.142 1.027-.514.257-1.113.4-1.855.4zm9.42 0c-.97 0-1.798-.2-2.512-.628a4.49 4.49 0 01-1.684-1.74c-.4-.743-.6-1.6-.6-2.57 0-.97.2-1.827.6-2.569.4-.742.97-1.313 1.684-1.741.714-.486 1.542-.685 2.512-.685.942 0 1.799.2 2.512.628a4.487 4.487 0 011.684 1.74c.4.743.6 1.6.6 2.57 0 .97-.2 1.827-.6 2.569-.4.742-.97 1.313-1.684 1.741-.742.457-1.57.685-2.512.685zm0-1.598c.914 0 1.656-.314 2.198-.914.543-.6.828-1.427.828-2.483s-.285-1.884-.828-2.484c-.542-.599-1.284-.913-2.198-.913-.913 0-1.655.314-2.198.913-.542.6-.828 1.428-.828 2.484s.286 1.884.828 2.483c.543.628 1.285.914 2.198.914zm9.362 1.427V32.24c.57-.485 1.142-.97 1.713-1.427.542-.485 1.056-.942 1.484-1.399.428-.456.77-.913 1.028-1.37.257-.457.399-.885.399-1.284 0-.4-.114-.742-.314-1.028-.228-.314-.57-.457-1.056-.457-.514 0-.885.172-1.142.486-.257.342-.37.713-.37 1.198h-1.713c.028-.713.17-1.284.456-1.77a2.788 2.788 0 011.17-1.056 3.776 3.776 0 011.628-.342c.97 0 1.741.257 2.283.8.543.542.828 1.227.828 2.083 0 .542-.114 1.056-.371 1.541-.228.514-.571 1-.942 1.456-.371.457-.828.914-1.285 1.313-.456.4-.913.771-1.341 1.142h4.139v1.427h-6.594v-.028zm8.478 0l3.626-8.107h-4.739v-1.484h6.537v1.256l-3.597 8.335h-1.827zm10.619.171c-.885 0-1.656-.2-2.284-.628a4.166 4.166 0 01-1.456-1.74c-.342-.743-.513-1.6-.513-2.599 0-.97.171-1.826.513-2.597.343-.742.828-1.342 1.456-1.741.628-.428 1.399-.628 2.284-.628.885 0 1.656.2 2.284.628a4.163 4.163 0 011.455 1.74c.343.743.514 1.6.514 2.598 0 1-.171 1.856-.514 2.598a4.164 4.164 0 01-1.455 1.741 4.27 4.27 0 01-2.284.628zm0-1.598c.714 0 1.313-.314 1.77-.914.456-.6.685-1.427.685-2.483s-.229-1.884-.685-2.484c-.457-.599-1.056-.913-1.77-.913-.742 0-1.313.314-1.77.913-.457.6-.685 1.428-.685 2.484s.228 1.884.685 2.483c.428.628 1.028.914 1.77.914zm9.705 1.598c-.885 0-1.656-.2-2.284-.628a4.166 4.166 0 01-1.456-1.74c-.342-.743-.513-1.6-.513-2.599 0-.97.171-1.826.513-2.597.343-.742.828-1.342 1.456-1.741.628-.428 1.399-.628 2.284-.628.885 0 1.655.2 2.283.628a4.158 4.158 0 011.456 1.74c.343.743.514 1.6.514 2.598 0 1-.171 1.856-.514 2.598a4.158 4.158 0 01-1.456 1.741c-.628.4-1.398.628-2.283.628zm0-1.598c.713 0 1.313-.314 1.77-.914.456-.6.685-1.427.685-2.483s-.229-1.884-.685-2.484c-.457-.599-1.057-.913-1.77-.913-.742 0-1.313.314-1.77.913-.457.6-.685 1.428-.685 2.484s.228 1.884.685 2.483c.457.628 1.056.914 1.77.914zm6.85 1.427v-7.593l-1.57.371v-1.341l2.312-1.028h1.085v9.591h-1.827zm3.485-3.254v-1.456h5.737v1.456h-5.737zm10.704 3.426c-.657 0-1.228-.143-1.685-.4a2.816 2.816 0 01-1.056-1.028 3.384 3.384 0 01-.456-1.37h1.627c.085.428.257.742.513.97.286.23.628.343 1.057.343.599 0 1.113-.285 1.484-.856s.571-1.427.599-2.57a2.656 2.656 0 01-.999.943 2.907 2.907 0 01-1.455.37 2.942 2.942 0 01-1.485-.37 3.198 3.198 0 01-1.142-1.085c-.285-.457-.428-1.027-.428-1.655 0-.571.143-1.114.428-1.599a3.612 3.612 0 011.171-1.199c.485-.314 1.084-.457 1.77-.457.713 0 1.341.143 1.826.4.486.257.885.628 1.199 1.056.286.457.514.942.657 1.485.143.542.2 1.113.2 1.684 0 1.056-.143 1.998-.457 2.797-.286.8-.742 1.399-1.313 1.827-.6.485-1.285.714-2.055.714zm.057-5.053c.342 0 .656-.085.913-.228.286-.143.485-.343.657-.6a1.75 1.75 0 00.228-.856c0-.485-.171-.913-.514-1.227a1.837 1.837 0 00-1.284-.486 1.84 1.84 0 00-1.285.485 1.557 1.557 0 00-.514 1.2c0 .513.172.913.514 1.227.314.314.742.485 1.285.485zm9.276 5.052c-.885 0-1.656-.2-2.284-.628a4.166 4.166 0 01-1.456-1.74c-.342-.743-.513-1.6-.513-2.599 0-.97.171-1.826.513-2.597.343-.742.828-1.342 1.456-1.741.628-.428 1.399-.628 2.284-.628.885 0 1.655.2 2.283.628a4.158 4.158 0 011.456 1.74c.343.743.514 1.6.514 2.598 0 1-.171 1.856-.514 2.598a4.158 4.158 0 01-1.456 1.741c-.628.4-1.398.628-2.283.628zm0-1.598c.713 0 1.313-.314 1.77-.914.456-.6.685-1.427.685-2.483s-.229-1.884-.685-2.484c-.457-.599-1.057-.913-1.77-.913-.742 0-1.313.314-1.77.913-.457.6-.685 1.428-.685 2.484s.228 1.884.685 2.483c.457.628 1.028.914 1.77.914zm9.736 1.598c-.885 0-1.656-.2-2.284-.628a4.166 4.166 0 01-1.456-1.74c-.342-.743-.514-1.6-.514-2.599 0-.97.172-1.826.514-2.597.343-.742.828-1.342 1.456-1.741.628-.428 1.399-.628 2.284-.628.885 0 1.655.2 2.283.628a4.158 4.158 0 011.456 1.74c.343.743.514 1.6.514 2.598 0 1-.171 1.856-.514 2.598a4.158 4.158 0 01-1.456 1.741c-.656.4-1.398.628-2.283.628zm0-1.598c.713 0 1.313-.314 1.769-.914.457-.6.686-1.427.686-2.483s-.229-1.884-.686-2.484c-.456-.599-1.056-.913-1.769-.913-.743 0-1.313.314-1.77.913-.457.6-.685 1.428-.685 2.484s.228 1.884.685 2.483c.428.628 1.027.914 1.77.914zm6.82 1.427v-7.593l-1.57.371v-1.341l2.312-1.028h1.085v9.591h-1.827zM71.727 43.631c-.485 0-.913-.114-1.256-.314a1.935 1.935 0 01-.799-.856 3.038 3.038 0 01-.285-1.285c0-.485.085-.913.285-1.284.2-.371.457-.657.8-.885.342-.2.77-.314 1.255-.314.571 0 1.056.143 1.427.428.372.285.6.685.686 1.199h-.97a1.082 1.082 0 00-.372-.6 1.276 1.276 0 00-.8-.256c-.456 0-.798.142-1.027.456a2.06 2.06 0 00-.4 1.256c0 .514.115.942.372 1.228.257.285.599.456 1.027.456.314 0 .571-.057.77-.2a.96.96 0 00.372-.57h.97c-.085.485-.313.885-.684 1.17-.343.228-.8.371-1.37.371zm2.856-.085V38.75h3.14v.714h-2.255v1.313h2.055v.685h-2.055v1.37h2.255v.714h-3.14zm3.967 0V38.75h1.77c.37 0 .713.057.942.2.256.142.428.314.57.514.143.2.172.456.172.742 0 .285-.086.57-.229.8-.142.227-.4.427-.713.513l.999 1.998h-1l-.884-1.884h-.714v1.884h-.913v.029zm.885-2.512h.827c.286 0 .514-.057.657-.2.143-.143.2-.343.2-.571 0-.228-.057-.4-.2-.542-.143-.143-.343-.2-.657-.2h-.827v1.513zm4.51 2.512v-4.082h-1.4v-.714h3.683v.714h-1.427v4.082h-.856zm2.91 0V38.75h.885v4.796h-.885zm1.828 0V38.75h3.083v.714H89.54v1.341h1.798v.685H89.54v2.056h-.857zm3.768 0V38.75h.885v4.796h-.885zm1.799 0V38.75h3.14v.714h-2.255v1.313h2.055v.685h-2.055v1.37h2.255v.714h-3.14zm3.967 0V38.75h1.627c.571 0 1.027.086 1.398.285.372.2.628.486.8.828.171.371.257.771.257 1.256 0 .486-.086.914-.257 1.256-.172.371-.457.628-.8.828-.371.2-.827.285-1.398.285h-1.627v.058zm.885-.743h.713c.4 0 .714-.057.942-.2.229-.142.4-.313.514-.57.114-.257.143-.543.143-.885 0-.343-.057-.628-.143-.885a1.11 1.11 0 00-.514-.571c-.228-.143-.542-.2-.942-.2h-.713v3.311z" fill="#212121"/></svg>