<svg width="213" height="88" fill="none" xmlns="http://www.w3.org/2000/svg"><rect width="213" height="88" rx="8" fill="#fff"/><path d="M47.345 69.116c-.663 0-1.245-.145-1.746-.434a3.13 3.13 0 01-1.167-1.235c-.277-.527-.415-1.135-.415-1.823s.138-1.292.415-1.813a3.13 3.13 0 011.167-1.235c.501-.296 1.083-.444 1.746-.444.668 0 1.25.148 1.745.444.502.296.891.707 1.168 1.235.276.52.414 1.125.414 1.813s-.138 1.296-.414 1.823a3.044 3.044 0 01-1.168 1.235c-.495.29-1.077.434-1.745.434zm0-.714c.495 0 .929-.11 1.302-.328a2.25 2.25 0 00.878-.955c.212-.418.318-.916.318-1.495 0-.579-.106-1.074-.319-1.485a2.194 2.194 0 00-.877-.946c-.373-.225-.807-.337-1.302-.337-.496 0-.933.112-1.312.337a2.273 2.273 0 00-.878.946c-.206.411-.309.906-.309 1.485 0 .579.103 1.077.309 1.495.212.412.505.73.878.955.38.219.816.328 1.312.328zm4.708.598v-4.1h-.723v-.684h.723v-.83c0-.463.116-.8.348-1.013.231-.212.569-.318 1.012-.318h.483v.695h-.357c-.245 0-.418.051-.521.154-.103.096-.154.264-.154.502v.81h1.176v.685h-1.176V69h-.81zm3.213 0v-4.1h-.724v-.684h.724v-.83c0-.463.115-.8.347-1.013.231-.212.569-.318 1.013-.318h.482v.695h-.357c-.244 0-.418.051-.521.154-.103.096-.154.264-.154.502v.81h2.97V69h-.81v-4.1h-2.16V69h-.81zm3.385-5.7a.556.556 0 01-.395-.155.55.55 0 01-.164-.405c0-.154.054-.283.164-.386a.556.556 0 01.395-.154c.16 0 .293.051.395.154.11.103.165.232.165.386a.55.55 0 01-.164.405.535.535 0 01-.396.154zm4.026 5.816c-.457 0-.868-.103-1.235-.309a2.344 2.344 0 01-.858-.878c-.206-.38-.309-.82-.309-1.321 0-.502.103-.939.309-1.312a2.25 2.25 0 01.858-.878 2.419 2.419 0 011.235-.318c.566 0 1.042.148 1.428.444.392.296.64.691.742 1.186h-.83a1.045 1.045 0 00-.472-.685 1.545 1.545 0 00-.878-.25c-.27 0-.524.067-.762.202s-.43.338-.578.608c-.148.27-.222.604-.222 1.003 0 .399.074.733.222 1.003.148.27.34.476.578.617.238.135.492.203.762.203.335 0 .627-.08.878-.241a1.09 1.09 0 00.473-.704h.83a1.914 1.914 0 01-.734 1.176c-.392.303-.871.454-1.437.454zm3.794-5.961a.569.569 0 01-.405-.155.568.568 0 01-.155-.405c0-.154.052-.283.155-.386a.569.569 0 01.405-.154c.154 0 .286.052.395.154.11.103.164.232.164.386a.55.55 0 01-.164.405.556.556 0 01-.395.155zM66.066 69v-4.784h.81V69h-.81zm3.812.116c-.398 0-.73-.068-.993-.203a1.376 1.376 0 01-.782-1.273c0-.489.187-.865.56-1.129.373-.263.88-.395 1.524-.395h1.292v-.058c0-.418-.109-.733-.328-.945-.218-.219-.51-.328-.877-.328-.316 0-.589.08-.82.241-.225.154-.367.383-.425.685h-.83c.033-.347.149-.64.348-.878.206-.238.46-.418.762-.54.302-.129.624-.193.965-.193.668 0 1.17.18 1.504.54.341.354.512.826.512 1.418V69h-.724l-.048-.859a1.92 1.92 0 01-.598.695c-.257.186-.605.28-1.042.28zm.126-.685c.308 0 .572-.08.79-.241.226-.161.396-.37.512-.627.115-.257.173-.528.173-.81v-.01h-1.225c-.476 0-.813.084-1.013.25a.758.758 0 00-.289.608c0 .251.09.454.27.608.187.148.447.222.782.222zm3.501.569v-6.945h.81V69h-.81zm2.138 0v-6.945h.81V69h-.81zm2.66 2.122l1.186-2.585h-.28l-1.9-4.321h.878l1.582 3.723 1.678-3.723h.84l-3.136 6.906h-.849zM85.317 69l2.488-6.752h.859L91.144 69h-.859l-.617-1.736h-2.874L86.167 69h-.85zm1.717-2.392h2.392L88.23 63.27l-1.196 3.338zm6.707 2.508c-.566 0-1.017-.17-1.35-.511-.335-.348-.502-.878-.502-1.592v-2.797h.81v2.71c0 .997.408 1.495 1.225 1.495.418 0 .762-.148 1.032-.443.276-.303.415-.73.415-1.283v-2.48h.81V69h-.733l-.058-.859c-.148.303-.37.54-.666.714-.289.174-.617.26-.983.26zM99.406 69c-.437 0-.781-.106-1.032-.318-.25-.213-.376-.595-.376-1.148V64.9h-.83v-.685h.83l.106-1.148h.704v1.148h1.408v.685h-1.408v2.633c0 .302.061.508.183.617.123.103.338.154.647.154h.501V69h-.733zm1.84 0v-6.945h.81v2.98c.161-.295.389-.523.685-.684.296-.167.617-.251.964-.251.553 0 .997.174 1.331.52.335.342.502.869.502 1.583V69h-.801v-2.71c0-.997-.401-1.496-1.205-1.496-.418 0-.769.152-1.052.454-.283.296-.424.72-.424 1.273V69h-.81zm7.7.116c-.451 0-.856-.103-1.216-.309a2.271 2.271 0 01-.858-.868c-.206-.38-.309-.823-.309-1.331s.106-.949.318-1.322c.213-.379.499-.672.859-.877a2.458 2.458 0 011.225-.309c.45 0 .855.103 1.215.309.36.205.643.498.849.877.212.373.318.814.318 1.322 0 .508-.106.952-.318 1.331a2.255 2.255 0 01-.868.868c-.36.206-.765.309-1.215.309zm0-.695c.276 0 .533-.067.771-.202s.431-.338.579-.608c.148-.27.222-.604.222-1.003 0-.399-.074-.733-.222-1.003a1.452 1.452 0 00-.569-.608 1.52 1.52 0 00-.762-.203c-.277 0-.534.068-.772.203a1.512 1.512 0 00-.579.608c-.147.27-.221.604-.221 1.003 0 .399.074.733.221 1.003.148.27.338.473.569.608.238.135.492.202.763.202zm3.528.579v-4.784h.733l.067.916a1.73 1.73 0 01.676-.752c.302-.187.675-.28 1.119-.28v.849h-.222a1.95 1.95 0 00-.782.154 1.162 1.162 0 00-.569.502c-.141.238-.212.566-.212.984V69h-.81zm3.996-5.845a.567.567 0 01-.405-.155.568.568 0 01-.155-.405c0-.154.052-.283.155-.386a.567.567 0 01.405-.154c.154 0 .286.052.395.154.11.103.164.232.164.386a.547.547 0 01-.164.405.555.555 0 01-.395.155zM116.065 69v-4.784h.81V69h-.81zm4.053.116c-.572 0-1.048-.145-1.427-.434-.38-.29-.601-.682-.666-1.177h.83c.051.25.183.47.395.656.219.18.512.27.878.27.341 0 .592-.07.752-.212a.687.687 0 00.242-.521c0-.29-.107-.482-.319-.579-.206-.096-.498-.183-.878-.26a4.969 4.969 0 01-.771-.222 1.78 1.78 0 01-.646-.405c-.174-.18-.261-.415-.261-.704 0-.418.154-.76.463-1.023.315-.27.74-.405 1.273-.405.508 0 .923.129 1.245.386.328.25.517.61.569 1.08h-.801a.81.81 0 00-.318-.569c-.174-.141-.408-.212-.704-.212-.29 0-.515.06-.675.183a.584.584 0 00-.232.482c0 .193.1.344.299.454.206.11.482.202.83.28.295.064.575.144.839.24.27.09.488.229.656.415.173.18.26.444.26.791.007.431-.157.788-.492 1.071-.328.277-.775.415-1.341.415zm5.142 0c-.457 0-.862-.103-1.216-.309a2.302 2.302 0 01-.839-.878c-.199-.373-.299-.813-.299-1.321 0-.502.1-.939.299-1.312a2.14 2.14 0 01.83-.878c.36-.212.774-.318 1.244-.318.463 0 .861.106 1.196.318.341.206.601.48.781.82a2.32 2.32 0 01.261 1.312v.241h-3.81c.019.367.102.672.25.916.155.238.344.419.569.54.232.123.476.184.734.184.334 0 .614-.077.839-.232.225-.154.389-.363.492-.627h.8a2.172 2.172 0 01-.742 1.11c-.361.29-.824.434-1.389.434zm0-4.331c-.386 0-.73.119-1.033.357-.295.231-.466.572-.511 1.022h3.01c-.02-.43-.168-.768-.444-1.013-.277-.244-.617-.366-1.022-.366zm5.51 4.33c-.475 0-.893-.109-1.253-.327a2.275 2.275 0 01-.83-.897 2.81 2.81 0 01-.289-1.293c0-.482.099-.91.299-1.283.199-.379.475-.675.829-.887.354-.219.772-.328 1.254-.328.392 0 .74.08 1.042.241.302.16.537.386.704.675v-2.96h.81V69h-.733l-.077-.79a2.23 2.23 0 01-.666.626c-.289.186-.652.28-1.09.28zm.087-.703c.322 0 .605-.074.849-.222a1.54 1.54 0 00.579-.637c.141-.27.212-.585.212-.945s-.071-.675-.212-.945a1.475 1.475 0 00-.579-.627 1.554 1.554 0 00-.849-.232c-.315 0-.598.077-.849.232a1.558 1.558 0 00-.578.627 2.09 2.09 0 00-.203.945c0 .36.068.675.203.945.141.27.334.482.578.637.251.148.534.222.849.222zm6.401.588v-6.752h2.218c.528 0 .962.087 1.303.26.34.174.591.409.752.705.167.295.251.63.251 1.003 0 .366-.081.698-.241.993a1.763 1.763 0 01-.753.714c-.341.174-.778.26-1.312.26h-1.408V69h-.81zm.81-3.501h1.389c.54 0 .923-.113 1.148-.338.231-.231.347-.547.347-.945 0-.405-.116-.72-.347-.945-.225-.232-.608-.348-1.148-.348h-1.389V65.5zm6.093 3.617c-.399 0-.73-.068-.994-.203a1.381 1.381 0 01-.781-1.273c0-.489.187-.865.56-1.129.373-.263.881-.395 1.524-.395h1.292v-.058c0-.418-.109-.733-.328-.945-.218-.219-.511-.328-.878-.328-.315 0-.588.08-.819.241-.226.154-.367.383-.425.685h-.829c.032-.347.147-.64.347-.878.206-.238.46-.418.762-.54a2.43 2.43 0 01.964-.193c.669 0 1.171.18 1.505.54.341.354.511.826.511 1.418V69h-.723l-.048-.859a1.93 1.93 0 01-.598.695c-.258.186-.605.28-1.042.28zm.125-.685c.309 0 .573-.08.791-.241.225-.161.396-.37.511-.627a1.95 1.95 0 00.174-.81v-.01h-1.225c-.476 0-.813.084-1.013.25a.757.757 0 00-.289.608c0 .251.09.454.27.608.186.148.447.222.781.222zm3.502.569v-4.784h.733l.067.916a1.73 1.73 0 01.676-.752c.302-.187.675-.28 1.119-.28v.849h-.222a1.95 1.95 0 00-.782.154 1.162 1.162 0 00-.569.502c-.141.238-.212.566-.212.984V69h-.81zm5.394 0c-.437 0-.781-.106-1.032-.318-.25-.213-.376-.595-.376-1.148V64.9h-.829v-.685h.829l.106-1.148h.704v1.148h1.409v.685h-1.409v2.633c0 .302.062.508.184.617.122.103.337.154.646.154h.502V69h-.734zm1.84 0v-4.784h.733l.048.858a1.75 1.75 0 01.666-.714c.289-.173.617-.26.984-.26.566 0 1.016.174 1.35.52.341.342.511.869.511 1.583V69h-.81v-2.71c0-.997-.411-1.496-1.234-1.496-.412 0-.756.152-1.033.454-.27.296-.405.72-.405 1.273V69h-.81zm7.671.116c-.457 0-.862-.103-1.215-.309a2.297 2.297 0 01-.84-.878c-.199-.373-.299-.813-.299-1.321 0-.502.1-.939.299-1.312.2-.38.476-.672.83-.878.36-.212.775-.318 1.244-.318.463 0 .862.106 1.196.318.341.206.602.48.782.82a2.32 2.32 0 01.26 1.312v.241h-3.81c.019.367.103.672.251.916.154.238.344.419.569.54.231.123.476.184.733.184.334 0 .614-.077.839-.232.225-.154.389-.363.492-.627h.801a2.18 2.18 0 01-.743 1.11c-.36.29-.823.434-1.389.434zm0-4.331c-.386 0-.73.119-1.032.357-.296.231-.466.572-.511 1.022h3.009c-.019-.43-.167-.768-.444-1.013-.276-.244-.617-.366-1.022-.366zM166.034 69v-4.784h.733l.067.916c.148-.315.373-.566.675-.752.303-.187.676-.28 1.119-.28v.849h-.222c-.283 0-.543.051-.781.154a1.158 1.158 0 00-.569.502c-.141.238-.212.566-.212.984V69h-.81z" fill="#707070"/><path d="M63.246 49.235V35.357h4.884c.66 0 1.273.11 1.842.33a4.421 4.421 0 011.512.891 4.22 4.22 0 011.008 1.396 4.15 4.15 0 01.368 1.763c0 .66-.123 1.26-.368 1.803-.246.53-.582.988-1.008 1.376a4.68 4.68 0 01-1.512.911 5.349 5.349 0 01-1.842.31h-2.267v5.098h-2.617zm4.923-7.579c.685 0 1.202-.194 1.55-.581a1.94 1.94 0 00.524-1.338c0-.245-.045-.484-.136-.717a1.42 1.42 0 00-.387-.6 1.738 1.738 0 00-.64-.427 2.446 2.446 0 00-.91-.155h-2.307v3.818h2.306zm11.712 6.571h-.155a4.218 4.218 0 01-1.085.93c-.414.259-.95.388-1.609.388-.49 0-.956-.084-1.395-.252a3.485 3.485 0 01-1.125-.66 2.99 2.99 0 01-.755-1.026c-.181-.4-.272-.84-.272-1.318 0-.491.097-.93.29-1.318.195-.4.466-.743.815-1.028a3.554 3.554 0 011.221-.64 5 5 0 011.55-.232c.62 0 1.131.052 1.532.155.4.09.73.188.988.29v-.29c0-.504-.2-.917-.6-1.24-.401-.336-.899-.504-1.493-.504-.879 0-1.622.368-2.229 1.105l-1.841-1.26c1.008-1.267 2.384-1.9 4.128-1.9 1.473 0 2.597.35 3.373 1.047.775.685 1.163 1.706 1.163 3.062v5.699h-2.5v-1.008zm0-2.85a4.678 4.678 0 00-.93-.329 3.66 3.66 0 00-1.027-.136c-.608 0-1.08.136-1.415.407-.323.259-.485.582-.485.97 0 .387.155.697.465.93.323.233.692.349 1.105.349.336 0 .646-.058.93-.175.285-.129.524-.29.718-.484.206-.207.361-.44.465-.698.116-.271.174-.55.174-.833zm6.903-4.322h.156a2.891 2.891 0 011.124-1.143 3.221 3.221 0 011.667-.446c.22 0 .394.006.523.02.13.012.252.038.368.077v2.52a2.366 2.366 0 00-.484-.155 2.807 2.807 0 00-.62-.059c-.802 0-1.435.246-1.9.737-.452.478-.678 1.137-.678 1.977v4.652H84.4v-9.498h2.384v1.318zm6.649.853h-1.667v-2.17h1.667V36.83h2.539v2.907h2.326v2.171h-2.326v3.683c0 .22.02.426.058.62.052.181.142.336.271.465.181.207.44.31.776.31.22 0 .394-.019.523-.058.13-.051.252-.116.368-.194l.717 2.23c-.297.142-.62.245-.969.31-.336.077-.71.116-1.124.116-.478 0-.911-.071-1.299-.213a2.882 2.882 0 01-.95-.62c-.607-.582-.91-1.41-.91-2.482v-4.167zm9.213-.93h.155a3.15 3.15 0 011.202-1.124c.504-.285 1.079-.427 1.725-.427.595 0 1.118.097 1.57.291.452.194.821.472 1.105.833.297.35.517.776.659 1.28a5.46 5.46 0 01.232 1.647v5.757h-2.539v-5.447c0-.684-.155-1.188-.465-1.511-.297-.337-.736-.505-1.318-.505a1.84 1.84 0 00-.93.233 2.129 2.129 0 00-.679.601 2.87 2.87 0 00-.426.892 4.18 4.18 0 00-.136 1.085v4.652h-2.539v-9.498h2.384v1.24zm17.739 5.97a5.283 5.283 0 01-1.783 1.88c-.736.478-1.641.717-2.713.717a5.427 5.427 0 01-2.016-.368 4.981 4.981 0 01-1.589-1.066 4.963 4.963 0 01-1.066-1.59 5.472 5.472 0 01-.369-2.035c0-.685.123-1.33.369-1.938a4.828 4.828 0 011.027-1.609 4.919 4.919 0 011.55-1.105 4.841 4.841 0 011.997-.407c.762 0 1.441.13 2.035.388a3.997 3.997 0 011.492 1.047c.401.439.705.962.911 1.57a6.09 6.09 0 01.311 1.976v.233a1.31 1.31 0 00-.02.213 1.084 1.084 0 00-.019.214h-7.152c.051.387.155.723.31 1.007.168.272.368.504.601.698.245.181.51.317.794.407.285.078.575.117.873.117.581 0 1.059-.13 1.434-.388.387-.271.691-.607.911-1.008l2.112 1.047zm-2.306-3.683a1.552 1.552 0 00-.174-.562 1.78 1.78 0 00-.427-.582 2.087 2.087 0 00-.698-.445c-.271-.117-.601-.175-.988-.175-.543 0-1.021.155-1.434.465-.414.31-.705.743-.873 1.299h4.594zm4.083-3.528h2.384v1.318h.155c.117-.232.272-.445.465-.64.194-.193.407-.361.64-.503a3.166 3.166 0 011.609-.446c.336 0 .62.032.853.097.245.064.452.148.62.252l-.679 2.306a2.068 2.068 0 00-.523-.174 2.51 2.51 0 00-.678-.078c-.349 0-.666.072-.95.214-.284.129-.53.316-.736.562a2.967 2.967 0 00-.466.872 3.495 3.495 0 00-.155 1.066v4.652h-2.539v-9.498zM73.967 21.94c0 1.505-.446 2.703-1.339 3.596-1.003 1.063-2.322 1.595-3.957 1.595-1.565 0-2.89-.542-3.973-1.625-1.083-1.083-1.625-2.418-1.625-4.002 0-1.585.542-2.92 1.625-4.003 1.084-1.083 2.408-1.625 3.973-1.625.792 0 1.54.14 2.242.421.702.281 1.279.677 1.73 1.189l-.993.993a3.264 3.264 0 00-1.294-.933 4.12 4.12 0 00-1.685-.346c-1.174 0-2.167.406-2.98 1.219-.802.822-1.203 1.85-1.203 3.085 0 1.233.4 2.262 1.203 3.084.813.813 1.806 1.219 2.98 1.219 1.073 0 1.966-.3 2.678-.903.712-.602 1.123-1.43 1.234-2.483H68.67v-1.294h5.221c.05.281.075.552.075.813zm.947 1.264c0-1.134.356-2.072 1.068-2.814.722-.742 1.63-1.113 2.724-1.113 1.093 0 1.996.37 2.708 1.113.722.742 1.083 1.68 1.083 2.814 0 1.143-.36 2.081-1.083 2.814-.712.742-1.615 1.113-2.709 1.113-1.093 0-2-.371-2.723-1.113-.712-.743-1.068-1.68-1.068-2.814zm1.384 0c0 .792.23 1.434.692 1.926a2.258 2.258 0 001.716.737 2.26 2.26 0 001.715-.737c.461-.492.692-1.134.692-1.926 0-.783-.23-1.42-.692-1.911-.472-.502-1.043-.752-1.716-.752-.672 0-1.243.25-1.715.752-.461.491-.692 1.128-.692 1.91zm7.036 0c0-1.134.356-2.072 1.068-2.814.722-.742 1.63-1.113 2.723-1.113 1.094 0 1.997.37 2.709 1.113.722.742 1.083 1.68 1.083 2.814 0 1.143-.36 2.081-1.083 2.814-.712.742-1.615 1.113-2.709 1.113-1.093 0-2-.371-2.723-1.113-.712-.743-1.069-1.68-1.069-2.814zm1.384 0c0 .792.23 1.434.692 1.926a2.258 2.258 0 001.715.737 2.26 2.26 0 001.716-.737c.461-.492.692-1.134.692-1.926 0-.783-.23-1.42-.692-1.911-.472-.502-1.044-.752-1.716-.752-.672 0-1.243.25-1.715.752-.462.491-.692 1.128-.692 1.91zm10.767 2.663c.682 0 1.239-.246 1.67-.737.452-.492.677-1.134.677-1.926 0-.773-.225-1.41-.677-1.911a2.13 2.13 0 00-1.67-.752c-.662 0-1.219.25-1.67.752-.452.502-.677 1.139-.677 1.91 0 .783.225 1.42.677 1.912.451.501 1.008.752 1.67.752zm-.045 4.514a3.96 3.96 0 01-1.159-.165 3.688 3.688 0 01-.993-.437 3.245 3.245 0 01-.752-.677 2.853 2.853 0 01-.482-.872l1.31-.542c.15.431.41.777.782 1.038.371.26.802.391 1.294.391.752 0 1.34-.225 1.76-.677.422-.451.632-1.073.632-1.866v-.707h-.06c-.26.391-.617.702-1.068.933-.442.22-.923.331-1.445.331-.963 0-1.79-.376-2.482-1.128-.683-.773-1.024-1.706-1.024-2.8 0-1.093.341-2.02 1.024-2.783.692-.762 1.52-1.143 2.482-1.143a3.07 3.07 0 011.445.346c.451.22.807.526 1.068.918h.06v-1.024h1.325v7.057c0 1.184-.337 2.112-1.009 2.784-.682.682-1.585 1.023-2.708 1.023zm6.789-14.264V26.89h-1.385V16.117h1.385zm4.923 11.014c-1.083 0-1.976-.371-2.678-1.113-.702-.743-1.053-1.68-1.053-2.814 0-1.124.341-2.057 1.023-2.799.682-.752 1.555-1.128 2.618-1.128 1.093 0 1.961.356 2.603 1.068.652.702.978 1.69.978 2.964l-.015.15h-5.793c.02.723.261 1.305.722 1.746a2.312 2.312 0 001.656.662c.882 0 1.574-.441 2.076-1.324l1.234.602a3.666 3.666 0 01-1.384 1.46c-.582.35-1.244.526-1.987.526zm-2.212-4.815h4.229a1.802 1.802 0 00-.632-1.264c-.372-.34-.873-.511-1.505-.511-.522 0-.973.16-1.354.481-.371.321-.617.752-.738 1.294zm13.382-6.32c.502 0 .913.086 1.234.256l-.376 1.219a1.794 1.794 0 00-.813-.18c-.341 0-.622.12-.842.36-.211.231-.316.542-.316.933v.933h1.926v1.264h-1.926v6.11h-1.385v-6.11h-1.384v-1.264h1.384V18.45c0-.732.231-1.324.692-1.776.472-.45 1.074-.677 1.806-.677zm1.262 7.208c0-1.134.357-2.072 1.069-2.814.722-.742 1.63-1.113 2.723-1.113 1.094 0 1.997.37 2.709 1.113.722.742 1.083 1.68 1.083 2.814 0 1.143-.361 2.081-1.083 2.814-.712.742-1.615 1.113-2.709 1.113-1.093 0-2.001-.371-2.723-1.113-.712-.743-1.069-1.68-1.069-2.814zm1.385 0c0 .792.23 1.434.692 1.926a2.257 2.257 0 001.715.737 2.26 2.26 0 001.716-.737c.461-.492.692-1.134.692-1.926 0-.783-.231-1.42-.692-1.911-.472-.502-1.044-.752-1.716-.752-.672 0-1.244.25-1.715.752-.462.491-.692 1.128-.692 1.91zm8.694 3.686h-1.384v-7.373h1.324v1.204h.06c.14-.391.426-.722.858-.993.441-.28.872-.421 1.294-.421.401 0 .742.06 1.023.18l-.421 1.34c-.171-.07-.442-.106-.813-.106-.522 0-.978.21-1.369.632a2.13 2.13 0 00-.572 1.475v4.062zm13.919-10.773v1.324h-4.906v3.416h4.424v1.294h-4.424v3.415h4.906v1.324h-6.29V16.117h6.29zm4.641 9.75c.682 0 1.239-.246 1.67-.737.452-.492.677-1.134.677-1.926 0-.773-.225-1.41-.677-1.911a2.129 2.129 0 00-1.67-.752c-.662 0-1.219.25-1.67.752-.452.502-.677 1.139-.677 1.91 0 .783.225 1.42.677 1.912.451.501 1.008.752 1.67.752zm-.226 1.264c-.963 0-1.79-.381-2.482-1.143-.683-.773-1.024-1.7-1.024-2.784 0-1.084.341-2.011 1.024-2.784.692-.762 1.519-1.143 2.482-1.143a3.13 3.13 0 011.475.346c.451.23.797.536 1.038.918h.06l-.06-1.024v-3.4h1.384V26.89h-1.324v-1.023h-.06c-.241.381-.587.687-1.038.918-.441.23-.933.346-1.475.346zm12.056-.241h-1.325v-1.023h-.06c-.21.361-.536.662-.978.903a2.74 2.74 0 01-1.354.361c-.903 0-1.6-.256-2.092-.767-.481-.522-.722-1.26-.722-2.212v-4.635h1.384v4.545c.031 1.203.637 1.805 1.821 1.805.552 0 1.013-.22 1.384-.662.372-.451.557-.988.557-1.61v-4.078h1.385v7.373zm4.982.241c-1.094 0-2.002-.371-2.724-1.113-.712-.763-1.068-1.7-1.068-2.814 0-1.134.356-2.072 1.068-2.814.722-.742 1.63-1.113 2.724-1.113.752 0 1.409.19 1.971.571.562.372.983.888 1.264 1.55l-1.264.527c-.391-.923-1.078-1.384-2.062-1.384-.632 0-1.178.255-1.64.767-.451.512-.677 1.143-.677 1.896 0 .752.226 1.384.677 1.896.462.511 1.008.767 1.64.767 1.014 0 1.726-.461 2.137-1.384l1.234.526a3.331 3.331 0 01-1.279 1.565c-.572.372-1.239.557-2.001.557zm5.425-2.498c0 .361.151.662.452.903.311.24.672.361 1.083.361.582 0 1.099-.215 1.55-.647.461-.431.692-.938.692-1.52-.431-.34-1.033-.511-1.805-.511-.562 0-1.034.135-1.415.406-.371.271-.557.607-.557 1.008zm1.791-5.356c1.023 0 1.831.275 2.423.827.591.542.887 1.29.887 2.242v4.544h-1.324v-1.023h-.06c-.572.843-1.334 1.264-2.287 1.264-.813 0-1.495-.24-2.047-.722a2.318 2.318 0 01-.812-1.806c0-.762.286-1.369.858-1.82.581-.452 1.354-.678 2.317-.678.822 0 1.499.15 2.031.452v-.316c0-.482-.19-.888-.572-1.219a1.943 1.943 0 00-1.339-.511c-.772 0-1.384.326-1.836.977l-1.218-.767c.672-.963 1.665-1.444 2.979-1.444zm7.644 7.733c-.602 0-1.104-.185-1.505-.556-.391-.371-.592-.888-.602-1.55v-4.123h-1.294v-1.264h1.294V17.26h1.385v2.257h1.805v1.264h-1.805v3.672c0 .491.095.827.285 1.008a.95.95 0 00.647.256c.111 0 .216-.01.316-.03a2.07 2.07 0 00.301-.106l.437 1.234c-.361.13-.783.196-1.264.196zm4.264-10.036a.944.944 0 01-.286.693.941.941 0 01-.692.285.941.941 0 01-.692-.285.941.941 0 01-.286-.693c0-.27.095-.501.286-.692a.941.941 0 01.692-.286c.271 0 .502.096.692.286.191.19.286.422.286.692zm-.286 2.543v7.373h-1.384v-7.373h1.384zm1.307 3.687c0-1.134.356-2.072 1.068-2.814.723-.742 1.63-1.113 2.724-1.113 1.093 0 1.996.37 2.708 1.113.723.742 1.084 1.68 1.084 2.814 0 1.143-.361 2.081-1.084 2.814-.712.742-1.615 1.113-2.708 1.113-1.094 0-2.001-.371-2.724-1.113-.712-.743-1.068-1.68-1.068-2.814zm1.384 0c0 .792.231 1.434.692 1.926a2.26 2.26 0 001.716.737c.682 0 1.254-.246 1.715-.737.462-.492.692-1.134.692-1.926 0-.783-.23-1.42-.692-1.911-.471-.502-1.043-.752-1.715-.752-.672 0-1.244.25-1.716.752-.461.491-.692 1.128-.692 1.91zm7.31-3.687h1.324v1.024h.061c.21-.362.531-.663.963-.903a2.818 2.818 0 011.369-.361c.903 0 1.595.26 2.076.782.492.512.738 1.244.738 2.197v4.634h-1.385v-4.544c-.03-1.204-.637-1.805-1.82-1.805-.552 0-1.014.225-1.385.677-.371.441-.556.973-.556 1.595v4.077h-1.385v-7.373z" opacity=".8" fill="#5F6368"/><path d="M50.343 33.072c0-1.165-.103-2.27-.28-3.345H33.412v6.645h9.534c-.428 2.181-1.68 4.023-3.537 5.276v4.42h5.688c3.33-3.08 5.246-7.618 5.246-12.996z" fill="#4285F4"/><path d="M33.41 50.368c4.775 0 8.768-1.592 11.686-4.288l-5.688-4.421c-1.592 1.061-3.61 1.71-5.998 1.71-4.612 0-8.516-3.11-9.916-7.31h-5.865v4.554c2.903 5.776 8.87 9.755 15.781 9.755z" fill="#34A853"/><path d="M23.493 36.054a10.26 10.26 0 01-.56-3.374c0-1.18.207-2.314.56-3.375v-4.553h-5.865a17.477 17.477 0 000 15.855l5.865-4.553z" fill="#FBBC05"/><path d="M33.41 22c2.609 0 4.937.898 6.779 2.652l5.04-5.04C42.178 16.754 38.184 15 33.41 15c-6.91 0-12.878 3.979-15.781 9.755l5.865 4.553c1.4-4.2 5.304-7.309 9.916-7.309z" fill="#EA4335"/></svg>